<svg width="208" height="38" viewBox="0 0 208 38" fill="none" xmlns="http://www.w3.org/2000/svg">
<path d="M13.86 35.45C11.01 35.45 8.655 34.985 6.795 34.055C4.965 33.095 3.675 31.715 2.925 29.915C2.175 28.085 2.025 25.865 2.475 23.255C2.715 21.965 2.985 20.6 3.285 19.16C3.615 17.69 3.93 16.295 4.23 14.975C4.86 12.425 5.94 10.265 7.47 8.495C9 6.725 10.89 5.375 13.14 4.445C15.42 3.515 17.955 3.05 20.745 3.05C22.995 3.05 24.93 3.335 26.55 3.905C28.17 4.445 29.475 5.18 30.465 6.11C31.455 7.04 32.145 8.06 32.535 9.17C32.925 10.28 33.015 11.375 32.805 12.455C32.775 12.725 32.64 12.95 32.4 13.13C32.19 13.31 31.935 13.4 31.635 13.4H25.065C24.765 13.4 24.54 13.355 24.39 13.265C24.24 13.145 24.12 12.98 24.03 12.77C23.94 12.32 23.745 11.855 23.445 11.375C23.145 10.865 22.68 10.43 22.05 10.07C21.42 9.71 20.52 9.53 19.35 9.53C17.67 9.53 16.23 9.98 15.03 10.88C13.86 11.78 13.035 13.22 12.555 15.2C12.255 16.49 11.955 17.795 11.655 19.115C11.385 20.405 11.13 21.71 10.89 23.03C10.53 25.13 10.755 26.645 11.565 27.575C12.405 28.505 13.68 28.97 15.39 28.97C16.5 28.97 17.535 28.775 18.495 28.385C19.485 27.995 20.325 27.395 21.015 26.585C21.705 25.745 22.17 24.68 22.41 23.39L22.59 22.535H18.36C18.03 22.535 17.775 22.43 17.595 22.22C17.445 21.98 17.4 21.695 17.46 21.365L18.18 18.035C18.24 17.705 18.405 17.435 18.675 17.225C18.945 16.985 19.23 16.865 19.53 16.865H30.915C31.245 16.865 31.485 16.985 31.635 17.225C31.785 17.435 31.83 17.705 31.77 18.035L30.69 23.165C30.18 25.745 29.13 27.95 27.54 29.78C25.98 31.61 24.015 33.02 21.645 34.01C19.305 34.97 16.71 35.45 13.86 35.45ZM32.9277 35C32.6277 35 32.3877 34.895 32.2077 34.685C32.0277 34.475 31.9677 34.205 32.0277 33.875L38.2377 4.625C38.2977 4.295 38.4627 4.025 38.7327 3.815C39.0027 3.605 39.2877 3.5 39.5877 3.5H60.6027C60.9327 3.5 61.1727 3.605 61.3227 3.815C61.5027 4.025 61.5627 4.295 61.5027 4.625L60.6477 8.855C60.5877 9.185 60.4227 9.455 60.1527 9.665C59.8827 9.875 59.5827 9.98 59.2527 9.98H44.8977L43.5927 16.055H56.9127C57.2427 16.055 57.4977 16.175 57.6777 16.415C57.8577 16.625 57.9177 16.895 57.8577 17.225L57.0027 21.14C56.9427 21.44 56.7777 21.71 56.5077 21.95C56.2677 22.16 55.9827 22.265 55.6527 22.265H42.2877L40.9827 28.52H55.6527C55.9827 28.52 56.2227 28.625 56.3727 28.835C56.5527 29.045 56.6127 29.315 56.5527 29.645L55.6527 33.875C55.5927 34.205 55.4277 34.475 55.1577 34.685C54.9177 34.895 54.6327 35 54.3027 35H32.9277ZM60.724 35C60.424 35 60.184 34.895 60.004 34.685C59.824 34.475 59.764 34.205 59.824 33.875L66.034 4.625C66.094 4.295 66.259 4.025 66.529 3.815C66.799 3.605 67.084 3.5 67.384 3.5H73.324C73.654 3.5 73.909 3.605 74.089 3.815C74.269 4.025 74.329 4.295 74.269 4.625L69.229 28.205H82.819C83.149 28.205 83.389 28.325 83.539 28.565C83.719 28.775 83.779 29.045 83.719 29.375L82.774 33.875C82.714 34.205 82.549 34.475 82.279 34.685C82.039 34.895 81.754 35 81.424 35H60.724ZM86.4548 35C86.1548 35 85.9148 34.895 85.7348 34.685C85.5548 34.475 85.4948 34.205 85.5548 33.875L91.7648 4.625C91.8248 4.295 91.9898 4.025 92.2598 3.815C92.5298 3.605 92.8148 3.5 93.1148 3.5H114.13C114.46 3.5 114.7 3.605 114.85 3.815C115.03 4.025 115.09 4.295 115.03 4.625L114.175 8.855C114.115 9.185 113.95 9.455 113.68 9.665C113.41 9.875 113.11 9.98 112.78 9.98H98.4248L97.1198 16.055H110.44C110.77 16.055 111.025 16.175 111.205 16.415C111.385 16.625 111.445 16.895 111.385 17.225L110.53 21.14C110.47 21.44 110.305 21.71 110.035 21.95C109.795 22.16 109.51 22.265 109.18 22.265H95.8148L94.5098 28.52H109.18C109.51 28.52 109.75 28.625 109.9 28.835C110.08 29.045 110.14 29.315 110.08 29.645L109.18 33.875C109.12 34.205 108.955 34.475 108.685 34.685C108.445 34.895 108.16 35 107.83 35H86.4548ZM114.251 35C113.951 35 113.711 34.895 113.531 34.685C113.351 34.475 113.291 34.205 113.351 33.875L119.561 4.625C119.621 4.295 119.771 4.025 120.011 3.815C120.281 3.605 120.581 3.5 120.911 3.5H125.681C126.161 3.5 126.491 3.605 126.671 3.815C126.851 4.025 126.971 4.205 127.031 4.355L134.366 21.77L138.011 4.625C138.071 4.295 138.236 4.025 138.506 3.815C138.776 3.605 139.061 3.5 139.361 3.5H144.761C145.091 3.5 145.331 3.605 145.481 3.815C145.661 4.025 145.721 4.295 145.661 4.625L139.451 33.875C139.391 34.175 139.226 34.445 138.956 34.685C138.716 34.895 138.431 35 138.101 35H133.331C132.851 35 132.521 34.895 132.341 34.685C132.161 34.445 132.041 34.265 131.981 34.145L124.556 17.36L121.001 33.875C120.941 34.205 120.776 34.475 120.506 34.685C120.266 34.895 119.981 35 119.651 35H114.251ZM145.695 35C145.395 35 145.155 34.895 144.975 34.685C144.795 34.475 144.735 34.205 144.795 33.875L151.005 4.625C151.065 4.295 151.23 4.025 151.5 3.815C151.77 3.605 152.055 3.5 152.355 3.5H173.37C173.7 3.5 173.94 3.605 174.09 3.815C174.27 4.025 174.33 4.295 174.27 4.625L173.415 8.855C173.355 9.185 173.19 9.455 172.92 9.665C172.65 9.875 172.35 9.98 172.02 9.98H157.665L156.36 16.055H169.68C170.01 16.055 170.265 16.175 170.445 16.415C170.625 16.625 170.685 16.895 170.625 17.225L169.77 21.14C169.71 21.44 169.545 21.71 169.275 21.95C169.035 22.16 168.75 22.265 168.42 22.265H155.055L153.75 28.52H168.42C168.75 28.52 168.99 28.625 169.14 28.835C169.32 29.045 169.38 29.315 169.32 29.645L168.42 33.875C168.36 34.205 168.195 34.475 167.925 34.685C167.685 34.895 167.4 35 167.07 35H145.695ZM173.491 35C173.191 35 172.951 34.895 172.771 34.685C172.591 34.475 172.531 34.205 172.591 33.875L178.801 4.625C178.861 4.295 179.011 4.025 179.251 3.815C179.521 3.605 179.806 3.5 180.106 3.5H185.821C186.151 3.5 186.406 3.605 186.586 3.815C186.766 4.025 186.826 4.295 186.766 4.625L184.651 14.435L194.641 4.355C194.821 4.175 195.061 3.995 195.361 3.815C195.661 3.605 196.066 3.5 196.576 3.5H203.236C203.656 3.5 203.911 3.695 204.001 4.085C204.121 4.445 204.046 4.745 203.776 4.985L190.006 19.16L198.511 33.515C198.751 33.905 198.736 34.25 198.466 34.55C198.196 34.85 197.896 35 197.566 35H191.266C190.786 35 190.426 34.91 190.186 34.73C189.946 34.55 189.766 34.34 189.646 34.1L182.896 22.85L180.511 33.875C180.451 34.205 180.301 34.475 180.061 34.685C179.821 34.895 179.536 35 179.206 35H173.491Z" fill="#D2232A"/>
</svg>
